<svg width="11" height="11" viewBox="0 0 11 11" fill="none" xmlns="http://www.w3.org/2000/svg">
<g clip-path="url(#clip0_622_824)">
<path d="M5.88056 0.519653C3.1236 0.519653 0.880737 2.76264 0.880737 5.51959C0.880737 8.27667 3.1236 10.5197 5.88056 10.5197C8.63751 10.5197 10.8805 8.27667 10.8805 5.51959C10.8805 2.76264 8.63739 0.519653 5.88056 0.519653ZM5.88056 9.79677C3.52227 9.79677 1.6035 7.878 1.6035 5.51959C1.6035 3.16119 3.52215 1.24254 5.88056 1.24254C8.23896 1.24254 10.1576 3.16119 10.1576 5.51959C10.1576 7.878 8.23896 9.79677 5.88056 9.79677Z" fill="#313131"/>
<path d="M7.32721 5.97982C7.32528 5.97982 7.3236 5.97982 7.32167 5.97982L6.24193 5.99597V3.17022C6.24193 2.97058 6.08012 2.80878 5.88048 2.80878C5.68085 2.80878 5.51904 2.97058 5.51904 3.17022V6.36295C5.51904 6.36367 5.51928 6.3644 5.51928 6.36512C5.51928 6.36632 5.51904 6.36741 5.51904 6.36837C5.51928 6.38307 5.52206 6.39693 5.52398 6.41102C5.52519 6.41982 5.52531 6.42885 5.52699 6.43753C5.53025 6.45307 5.53567 6.46753 5.54085 6.48211C5.5435 6.4897 5.54519 6.49765 5.54832 6.50488C5.55458 6.5197 5.56302 6.53319 5.57109 6.54704C5.57483 6.55319 5.5776 6.55994 5.58157 6.56596C5.59073 6.57933 5.60169 6.59126 5.61254 6.60343C5.61711 6.60849 5.62085 6.61427 5.62567 6.61921C5.63735 6.63078 5.65049 6.64054 5.66362 6.65054C5.66892 6.65451 5.67362 6.65933 5.67904 6.66307C5.69326 6.67271 5.7088 6.6803 5.72434 6.68777C5.72976 6.6903 5.73458 6.69391 5.74012 6.6962C5.7582 6.70379 5.77747 6.70909 5.79699 6.71379C5.80061 6.71463 5.80398 6.71632 5.80771 6.71704C5.83109 6.72174 5.8553 6.72439 5.88012 6.72439C5.88193 6.72439 5.88386 6.72439 5.88566 6.72439L7.33239 6.70271C7.53191 6.69969 7.6913 6.53536 7.68841 6.33584C7.68564 6.13813 7.52432 5.97982 7.32721 5.97982Z" fill="#313131"/>
</g>
<defs>
<clipPath id="clip0_622_824">
<rect width="10" height="10" fill="white" transform="translate(0.880615 0.519653)"/>
</clipPath>
</defs>
</svg>
