<svg width="12" height="10" viewBox="0 0 12 10" fill="none" xmlns="http://www.w3.org/2000/svg">
<path d="M11.5322 6.60972H10.8367V6.15799C10.8367 5.35302 10.1819 4.69832 9.37707 4.69832H6.67468V3.42954H7.36154C7.48609 3.42954 7.58718 3.32845 7.58718 3.2039V0.996454C7.58718 0.8719 7.48609 0.770813 7.36154 0.770813H5.15409C5.02954 0.770813 4.92845 0.8719 4.92845 0.996454V3.2039C4.92845 3.32845 5.02954 3.42954 5.15409 3.42954H5.84083V4.69821H3.13866C2.33369 4.69821 1.67899 5.35302 1.67899 6.15788V6.60961H0.983454C0.8589 6.60961 0.757812 6.7107 0.757812 6.83525V9.04281C0.757812 9.16736 0.8589 9.26845 0.983454 9.26845H3.1909C3.31545 9.26845 3.41654 9.16736 3.41654 9.04281V6.83536C3.41654 6.71081 3.31545 6.60972 3.1909 6.60972H2.51296V6.15799C2.51296 5.81298 2.79355 5.5324 3.13855 5.5324H5.84072V6.60972H5.15398C5.02942 6.60972 4.92834 6.71081 4.92834 6.83536V9.04281C4.92834 9.16736 5.02942 9.26845 5.15398 9.26845H7.36142C7.48598 9.26845 7.58706 9.16736 7.58706 9.04281V6.83536C7.58706 6.71081 7.48598 6.60972 7.36142 6.60972H6.67468V5.5324H9.37685C9.72185 5.5324 10.0024 5.81298 10.0024 6.15799V6.60972H9.32439C9.19983 6.60972 9.09875 6.71081 9.09875 6.83536V9.04281C9.09875 9.16736 9.19983 9.26845 9.32439 9.26845H11.5322C11.6567 9.26845 11.7578 9.16736 11.7578 9.04281V6.83536C11.7578 6.7107 11.6567 6.60972 11.5322 6.60972Z" fill="#313131"/>
</svg>
