<svg width="48" height="55" viewBox="0 0 48 55" fill="none" xmlns="http://www.w3.org/2000/svg">
<path d="M45.6135 13.9049C41.903 5.92565 34.1213 0.619228 25.3382 0.0798019L24.4519 0.00012207L23.6678 0.0199059C20.9584 0.119369 18.3026 0.805813 15.885 2.03332C9.45671 5.24719 5.40611 11.8261 5.42916 19.0129V22.3823L0.129285 31.2163C-0.0387864 31.4956 -0.0431424 31.8441 0.117124 32.1279C0.277754 32.4115 0.578504 32.5873 0.904302 32.5873H6.57063L6.02159 40.7435C5.60068 43.1572 7.19119 45.4626 9.59647 45.9271C9.65618 45.9387 9.71644 45.9443 9.77779 45.9443C9.81046 45.9443 9.84331 45.9427 9.87562 45.9389L15.3837 45.3415V53.4008C15.3837 53.9012 15.7892 54.3056 16.2887 54.3056H38.0074C38.5069 54.3056 38.9122 53.9012 38.9122 53.4008V44.4077L45.9845 26.9353C47.5387 22.7052 47.4058 18.0392 45.6135 13.9049ZM44.2934 26.2917L37.1689 43.8988C37.119 44.0282 37.0998 44.1672 37.1135 44.3044C37.1135 44.3235 37.1023 44.3396 37.1023 44.3589V52.4957H17.1934V44.3516C17.1934 44.3324 17.184 44.3164 17.1827 44.2974C17.1822 44.2783 17.1909 44.2574 17.188 44.2355C17.1767 44.1812 17.1606 44.1277 17.1383 44.0766C17.1296 44.0422 17.1188 44.0084 17.106 43.9752C17.0671 43.8877 17.0143 43.8073 16.949 43.7372C16.9419 43.7289 16.9384 43.7175 16.9312 43.7089L16.9154 43.6957C16.7261 43.5024 16.4598 43.4065 16.1912 43.4339L9.82298 44.1235C8.41761 43.7699 7.53605 42.3774 7.81665 40.9559L8.4412 31.7432C8.47587 31.2442 8.0998 30.8121 7.60139 30.777C7.52734 30.7721 2.50534 30.777 2.50534 30.777L7.11278 23.0962C7.12077 23.0768 7.12803 23.0573 7.13366 23.0376C7.15961 22.9833 7.17994 22.9265 7.19428 22.868C7.21243 22.8089 7.22423 22.7486 7.23058 22.6871C7.23058 22.6662 7.24219 22.6482 7.24219 22.6265V19.0129C7.21769 12.5091 10.8811 6.55256 16.697 3.64034C18.8843 2.53045 21.286 1.90899 23.7373 1.81896H24.4537C32.8553 2.05836 40.4031 7.01702 43.9586 14.6331C45.5596 18.3328 45.6794 22.5058 44.2934 26.2917Z" fill="url(#paint0_linear_501_224)"/>
<path d="M24.4337 4.53388C20.435 4.53896 16.7121 6.57252 14.5465 9.93395C12.3812 13.295 12.0685 17.5255 13.7165 21.1688V21.1791L13.7225 21.1969C13.7447 21.2321 13.7692 21.2657 13.7958 21.2971C13.8485 21.4167 13.9421 21.5127 14.0605 21.5685C14.1086 21.6046 14.1605 21.6345 14.2149 21.6592C14.2783 21.679 14.3429 21.6917 14.409 21.6981C14.4554 21.7119 14.5035 21.7218 14.5514 21.7278H17.6644C17.6918 21.7235 17.7185 21.718 17.7454 21.7119C17.8069 21.706 17.8671 21.6935 17.9259 21.6754C17.9842 21.6583 18.041 21.6347 18.0942 21.606C18.1205 21.5966 18.1456 21.5863 18.1704 21.5739C18.1948 21.5579 18.2075 21.5322 18.2301 21.514C18.2781 21.4754 18.3216 21.4311 18.3606 21.383C18.395 21.3394 18.4253 21.2926 18.4512 21.243C18.5057 21.1378 18.5389 21.0238 18.5503 20.9065C18.5588 20.8791 18.565 20.851 18.5696 20.8225C18.5657 20.7953 18.5603 20.7686 18.5532 20.7414C18.548 20.68 18.5356 20.6196 18.5169 20.5606C18.5002 20.502 18.4768 20.445 18.4476 20.3918C18.4385 20.3656 18.4276 20.3404 18.4158 20.3157C16.5774 17.5558 16.8518 13.8987 19.0816 11.4441C21.3112 8.98941 24.9245 8.36595 27.8478 9.93141C30.7711 11.4967 32.2554 14.85 31.4483 18.0664C30.6411 21.2826 27.7498 23.538 24.4337 23.5378C23.9337 23.5378 23.5284 23.9431 23.5284 24.4424V36.2069C23.5284 36.7073 23.9337 37.112 24.4337 37.112H28.0533C28.5531 37.112 28.9586 36.7073 28.9586 36.2069V27.1468C34.1343 24.9916 37.0685 19.4826 35.9682 13.9849C34.8687 8.48737 30.0398 4.53115 24.4337 4.53388ZM27.7529 25.6797C27.7442 25.6797 27.7378 25.6906 27.7293 25.6937C27.6688 25.7205 27.6118 25.7541 27.5592 25.7948C27.5137 25.8211 27.4706 25.851 27.4305 25.8851C27.3922 25.928 27.3577 25.9737 27.3289 26.0233C27.2919 26.0685 27.2597 26.1153 27.232 26.1659C27.2153 26.2149 27.2017 26.2647 27.1928 26.3159C27.1728 26.3785 27.1597 26.4438 27.1539 26.5095C27.1539 26.5197 27.1483 26.5268 27.1483 26.5369V35.3019H25.3385V25.2962C29.2624 24.9199 32.4963 22.0573 33.3455 18.2078C34.195 14.3586 32.466 10.401 29.0646 8.40896C25.6632 6.41661 21.3656 6.84441 18.4231 9.46749C15.4815 12.0911 14.5661 16.3118 16.1565 19.9181H15.1682C13.6911 16.1403 14.6536 11.8439 17.6021 9.05802C20.5503 6.27195 24.8942 5.55429 28.5823 7.24244C32.271 8.93078 34.566 12.6883 34.3828 16.7405C34.2013 20.7934 31.5779 24.3293 27.7529 25.6797Z" fill="url(#paint1_linear_501_224)"/>
<path d="M28.0529 38.9216H24.4334C23.9334 38.9216 23.5281 39.3267 23.5281 39.8267V43.4464C23.5281 43.9467 23.9334 44.3516 24.4334 44.3516H28.0529C28.5528 44.3516 28.9583 43.9467 28.9583 43.4464V39.8267C28.9583 39.3267 28.5528 38.9216 28.0529 38.9216ZM27.148 42.5413H25.3382V40.7315H27.148V42.5413Z" fill="url(#paint2_linear_501_224)"/>
<defs>
<linearGradient id="paint0_linear_501_224" x1="0" y1="27.1529" x2="47.0611" y2="27.1529" gradientUnits="userSpaceOnUse">
<stop stop-color="#517FB5" stop-opacity="0.85"/>
<stop offset="1" stop-color="#5573A7"/>
</linearGradient>
<linearGradient id="paint1_linear_501_224" x1="12.6695" y1="20.8229" x2="36.1981" y2="20.8229" gradientUnits="userSpaceOnUse">
<stop stop-color="#517FB5" stop-opacity="0.85"/>
<stop offset="1" stop-color="#5573A7"/>
</linearGradient>
<linearGradient id="paint2_linear_501_224" x1="23.5281" y1="41.6366" x2="28.9583" y2="41.6366" gradientUnits="userSpaceOnUse">
<stop stop-color="#517FB5" stop-opacity="0.85"/>
<stop offset="1" stop-color="#5573A7"/>
</linearGradient>
</defs>
</svg>
