<svg width="50" height="50" viewBox="0 0 50 50" fill="none" xmlns="http://www.w3.org/2000/svg">
<path d="M20.6054 40.8046C9.45038 40.8046 0.375 31.7357 0.375 20.5899C0.375 9.444 9.45038 0.375122 20.6054 0.375122C31.7605 0.375122 40.8359 9.444 40.8359 20.5899C40.8359 31.7357 31.7605 40.8046 20.6054 40.8046ZM20.6054 3.52839C11.1906 3.52839 3.53125 11.1815 3.53125 20.5899C3.53125 29.9982 11.1906 37.6513 20.6054 37.6513C30.0203 37.6513 37.6797 29.9982 37.6797 20.5899C37.6797 11.1815 30.0203 3.52839 20.6054 3.52839ZM49.1629 46.9338C49.779 47.5494 49.779 48.5475 49.1629 49.1633L49.1629 49.1633C48.8546 49.4713 48.4515 49.6251 48.0469 49.6251C47.6423 49.6251 47.239 49.4712 46.9308 49.1633L38.1906 40.4298C37.5745 39.8141 37.5745 38.8159 38.1906 38.2002C38.8069 37.5843 39.8063 37.5843 40.4227 38.2002L49.1629 46.9338Z" fill="url(#paint0_linear_501_232)" stroke="white" stroke-width="0.75"/>
<defs>
<linearGradient id="paint0_linear_501_232" x1="0" y1="25.0001" x2="50" y2="25.0001" gradientUnits="userSpaceOnUse">
<stop stop-color="#517FB5" stop-opacity="0.85"/>
<stop offset="1" stop-color="#5573A7"/>
</linearGradient>
</defs>
</svg>
