<svg width="39" height="39" viewBox="0 0 39 39" fill="none" xmlns="http://www.w3.org/2000/svg">
<path d="M35.1175 19.4754C35.1175 20.4346 34.6361 21.3938 33.6734 21.8735C30.4643 23.792 24.3671 27.1494 19.8743 29.3877C16.0233 31.3061 10.7284 33.5443 7.03791 35.1431C6.717 35.3029 6.23564 35.4628 5.91473 35.4628C5.27291 35.4628 4.47065 35.1431 3.98928 34.6634C3.18701 33.864 3.02655 32.7449 3.34746 31.6258L6.717 21.7136C6.87746 21.0741 7.51928 20.7544 8.1611 20.7544H16.1839C16.8256 20.7544 17.4674 20.2747 17.4674 19.4754C17.4674 18.676 16.9862 18.1964 16.1839 18.1964H8.1611C7.51928 18.1964 6.87746 17.7167 6.717 17.0772L3.34746 7.16501C3.02655 6.20576 3.18701 5.08664 4.14974 4.28725C4.952 3.48788 6.07518 3.328 7.03791 3.80763C10.0866 5.08664 15.8629 7.64463 19.8743 9.56313C24.3671 11.8014 30.4643 15.3186 33.6734 17.0772C34.6361 17.5569 35.1175 18.5161 35.1175 19.4754Z" fill="#6990BE"/>
</svg>
