<svg width="48" height="48" viewBox="0 0 48 48" fill="none" xmlns="http://www.w3.org/2000/svg">
<g clip-path="url(#clip0_501_210)">
<g clip-path="url(#clip1_501_210)">
<path d="M32.5732 15.7284H41.1446C43.8193 15.7284 45.9875 17.8966 45.9875 20.5713V42.8571C45.9875 45.5318 43.8193 47.7 41.1446 47.7H6.8587C4.18404 47.7 2.01581 45.5318 2.01581 42.8571V20.5712C2.01581 17.8965 4.18404 15.7283 6.8587 15.7283H15.4302C16.2113 15.7283 16.8445 16.3615 16.8445 17.1426C16.8445 17.9237 16.2113 18.5569 15.4302 18.5569H6.8587C5.7462 18.5569 4.84437 19.4588 4.84437 20.5713V42.8573C4.84437 43.9698 5.7462 44.8716 6.8587 44.8716H41.1446C42.2571 44.8716 43.159 43.9698 43.159 42.8573V20.5714C43.159 19.4589 42.2571 18.557 41.1446 18.557H32.5732C31.7921 18.557 31.1589 17.9238 31.1589 17.1427C31.1589 16.3616 31.7921 15.7284 32.5732 15.7284Z" fill="url(#paint0_linear_501_210)" stroke="white" stroke-width="0.6"/>
<path d="M14.4671 11.2817L14.4671 11.2817C15.0146 11.8105 15.8822 11.8111 16.4304 11.2835L22.0737 5.64017L22.5859 5.12804V5.8523V34.2858C22.5859 35.0669 23.2191 35.7001 24.0002 35.7001C24.7813 35.7001 25.4145 35.0669 25.4145 34.2858V5.8524V5.12814L25.9267 5.64027L31.57 11.2836C32.1319 11.8244 33.0259 11.8083 33.5679 11.2471L14.4671 11.2817ZM14.4671 11.2817C13.9059 10.7397 13.8897 9.8457 14.4306 9.28374L23.0002 0.71423M14.4671 11.2817L23.0002 0.71423M25 0.71423L33.5695 9.28377C34.0971 9.83196 34.0966 10.6995 33.568 11.247L25 0.71423ZM25 0.71423C25 0.714224 25 0.714219 25 0.714214M25 0.71423L25 0.714214M23.0002 0.71423C23.5524 0.162092 24.4477 0.162086 25 0.714214M23.0002 0.71423L25 0.714214" fill="url(#paint1_linear_501_210)" stroke="white" stroke-width="0.6"/>
</g>
</g>
<defs>
<linearGradient id="paint0_linear_501_210" x1="1.71581" y1="31.7141" x2="46.2875" y2="31.7141" gradientUnits="userSpaceOnUse">
<stop stop-color="#517FB5" stop-opacity="0.85"/>
<stop offset="1" stop-color="#5573A7"/>
</linearGradient>
<linearGradient id="paint1_linear_501_210" x1="13.7353" y1="18.0001" x2="34.2648" y2="18.0001" gradientUnits="userSpaceOnUse">
<stop stop-color="#517FB5" stop-opacity="0.85"/>
<stop offset="1" stop-color="#5573A7"/>
</linearGradient>
<clipPath id="clip0_501_210">
<rect width="48" height="48" fill="white"/>
</clipPath>
<clipPath id="clip1_501_210">
<rect width="48" height="48" fill="white"/>
</clipPath>
</defs>
</svg>
